<svg xmlns="http://www.w3.org/2000/svg" width="159" height="50" fill="none"><defs><clipPath id="a"><rect width="158" height="49" fill="#fff" fill-opacity="0" rx="0" transform="translate(.5 .5)"/></clipPath></defs><rect width="158" height="49" fill="none" rx="0" transform="translate(.5 .5)"/><g clip-path="url(#a)"><path fill="#FF385C" d="M45.58 35.43c-.25-.61-.49-1.25-.74-1.8l-1.15-2.6-.05-.05c-3.43-7.5-7.09-15.13-10.97-22.63l-.16-.31c-.39-.73-.78-1.55-1.18-2.3-.5-.89-.98-1.84-1.78-2.75a8.273 8.273 0 0 0-6.39-3.03 8.273 8.273 0 0 0-6.39 3.03c-.73.91-1.28 1.86-1.78 2.75a51.4 51.4 0 0 1-1.18 2.35l-.16.31C9.83 15.9 6.11 23.53 2.68 31.03l-.1.09c-.34.81-.75 1.66-1.14 2.56-.24.55-.49 1.14-.74 1.8-.68 1.72-.89 3.58-.63 5.41.27 1.83 1 3.55 2.13 5.01 1.14 1.45 2.63 2.59 4.33 3.29 1.71.7 3.56.95 5.39.71 1.75-.23 3.44-.82 4.96-1.72 2.02-1.14 3.97-2.8 6.15-5.19 2.19 2.39 4.18 4.05 6.16 5.21 1.91 1.12 4.06 1.74 6.27 1.79 2.55.01 5.03-.9 6.96-2.58a10.61 10.61 0 0 0 3.56-6.53c.42-1.82.28-3.72-.4-5.46v.01Zm-22.39 2.6c-2.68-3.44-4.43-6.6-5.02-9.3-.24-1-.3-2.04-.15-3.06.1-.8.4-1.5.81-2.1.93-1.36 2.57-2.2 4.36-2.2.85-.03 1.7.16 2.46.54s1.42.95 1.91 1.65c.4.62.7 1.31.79 2.11.16.9.09 1.95-.16 3.06-.59 2.65-2.33 5.84-5 9.3Zm19.86 2.31c-.18 1.28-.69 2.5-1.48 3.53a7.424 7.424 0 0 1-3.04 2.33c-1.19.5-2.49.64-3.77.5-1.25-.16-2.5-.57-3.78-1.32a24.001 24.001 0 0 1-5.65-4.84c3.27-4.06 5.25-7.76 6-11.06.36-1.56.4-2.97.25-4.27-.2-1.23-.66-2.4-1.34-3.43a8.34 8.34 0 0 0-3.06-2.66 8.415 8.415 0 0 0-3.94-.91c-2.89 0-5.46 1.35-7.02 3.55a8.086 8.086 0 0 0-1.32 3.45c-.21 1.32-.16 2.77.25 4.27.75 3.3 2.77 7.05 6 11.09-1.6 1.93-3.51 3.58-5.66 4.88-1.29.75-2.53 1.14-3.77 1.29-1.94.25-3.9-.28-5.45-1.47a7.413 7.413 0 0 1-2.85-4.89c-.15-1.25-.04-2.5.46-3.9.15-.5.39-1 .64-1.6.34-.81.74-1.65 1.13-2.5l.07-.1c3.36-7.46 7.04-15.07 10.86-22.52l.16-.31c.39-.75.78-1.55 1.18-2.3.41-.8.84-1.56 1.4-2.19.49-.58 1.1-1.05 1.78-1.37a5.21 5.21 0 0 1 2.19-.48 5.144 5.144 0 0 1 3.97 1.85c.54.63 1 1.39 1.4 2.19.39.75.78 1.56 1.19 2.3l.15.31c3.81 7.45 7.48 15.06 10.91 22.52l.05.04c.41.81.75 1.72 1.14 2.5.25.61.5 1.1.65 1.61.3 1.41.46 2.66.3 3.91Zm21.7-2.66c-1.18.02-2.34-.23-3.41-.72-1.06-.5-2-1.23-2.75-2.14a10.193 10.193 0 0 1-2.49-7c-.03-2.62.89-5.16 2.58-7.15.79-.93 1.76-1.66 2.86-2.16 1.1-.51 2.3-.76 3.5-.75 1.14-.03 2.27.23 3.28.75 1 .53 1.86 1.3 2.49 2.25l.16-2.45h4.55v18.87h-4.57l-.15-2.75a7.025 7.025 0 0 1-2.61 2.41 6.98 6.98 0 0 1-3.44.84Zm1.18-4.5c.91 0 1.7-.25 2.45-.7.69-.5 1.25-1.16 1.68-1.95.39-.8.6-1.75.6-2.82a5.41 5.41 0 0 0-.52-2.68 5.539 5.539 0 0 0-1.77-2.07c-.73-.45-1.58-.69-2.44-.69-.86 0-1.7.24-2.43.69a5.84 5.84 0 0 0-1.68 1.96c-.41.87-.62 1.84-.59 2.81-.07.92.11 1.84.52 2.68.4.83 1.01 1.54 1.77 2.07.73.45 1.52.7 2.41.7Zm17.38-19.97c0 .55-.09 1.05-.34 1.46-.25.39-.59.75-1.04 1-.46.25-.94.34-1.44.34s-.99-.09-1.45-.34c-.42-.24-.78-.59-1.04-1-.24-.45-.36-.95-.34-1.46 0-.56.1-1.06.34-1.45.25-.47.61-.75 1.04-1 .46-.25.94-.36 1.45-.36.5-.01.99.11 1.43.34.43.24.8.58 1.07 1 .22.46.34.96.32 1.47Zm-5.3 23.91V18.28h4.96v18.87H78l.01-.03Zm18.21-13.91v.07c-.23-.11-.54-.16-.78-.21-.31-.06-.56-.06-.86-.06-1.38 0-2.43.41-3.11 1.25-.75.86-1.09 2.06-1.09 3.61v9.26H85.4V18.26h4.57l.16 2.86c.5-1 1.09-1.75 1.93-2.31.84-.55 1.82-.82 2.82-.78.36 0 .7.03 1 .09.15.05.25.05.34.09v5Zm2 13.91V10.53h4.95v10.15c.71-.9 1.5-1.61 2.5-2.15 1.58-.78 3.37-1 5.09-.63a7.82 7.82 0 0 1 4.39 2.67c1.68 1.94 2.57 4.45 2.49 7.02.03 2.62-.89 5.16-2.59 7.15-.78.92-1.76 1.66-2.86 2.16-1.09.51-2.29.76-3.5.75a6.77 6.77 0 0 1-3.27-.75 6.764 6.764 0 0 1-2.5-2.25l-.15 2.45-4.55.05v-.03Zm9.58-3.94c.89 0 1.69-.25 2.44-.7.68-.5 1.24-1.16 1.68-1.95.4-.8.59-1.75.59-2.82 0-1.04-.19-2-.59-2.79a5.99 5.99 0 0 0-1.68-1.96c-.73-.45-1.58-.69-2.44-.69-.86 0-1.7.24-2.43.69-.7.5-1.25 1.16-1.7 1.96-.41.87-.61 1.84-.59 2.81-.06.92.12 1.84.52 2.68.4.83 1.01 1.54 1.77 2.07.73.45 1.53.7 2.43.7Zm11.71 3.95V18.26h4.57l.15 2.45c.58-.94 1.39-1.71 2.36-2.23s2.06-.77 3.16-.72c1.26-.02 2.49.33 3.55 1.01 1.06.67 1.9 1.65 2.41 2.8.54 1.19.84 2.66.84 4.3v11.31h-4.97V26.53c0-1.32-.3-2.35-.89-3.11-.6-.75-1.41-1.16-2.44-1.16-.74 0-1.4.16-1.97.5-.55.36-1 .81-1.34 1.45-.35.65-.52 1.38-.5 2.11v10.81h-4.93Zm19.52 0V10.51H144v10.16c.67-.92 1.55-1.66 2.56-2.17s2.12-.78 3.25-.79a7.826 7.826 0 0 1 6.16 2.86c1.67 1.94 2.55 4.44 2.48 7 .03 2.62-.89 5.16-2.59 7.16-.78.92-1.76 1.66-2.86 2.16-1.09.5-2.29.76-3.5.74-1.13.04-2.26-.22-3.27-.75a6.679 6.679 0 0 1-2.5-2.25l-.14 2.46-4.56.04Zm9.63-3.95c.9 0 1.7-.25 2.43-.7.7-.5 1.25-1.16 1.7-1.95.39-.8.59-1.75.59-2.82.06-.92-.11-1.84-.52-2.68-.4-.83-1.01-1.54-1.77-2.07a4.629 4.629 0 0 0-4.86 0c-.69.5-1.25 1.16-1.68 1.96-.44.87-.64 1.84-.6 2.81-.06.92.12 1.84.52 2.68.4.83 1.02 1.54 1.77 2.07.74.45 1.49.7 2.42.7Z"/></g></svg>