<svg width="52" height="56" viewBox="0 0 52 56" fill="none" xmlns="http://www.w3.org/2000/svg">
<g filter="url(#filter0_b_42_153)">
<mask id="path-1-outside-1_42_153" maskUnits="userSpaceOnUse" x="0.660156" y="0.625977" width="48" height="51" fill="black">
<rect fill="white" x="0.660156" y="0.625977" width="48" height="51"/>
<path d="M34.9231 1.62598L13.7484 1.62598C6.03209 1.62598 1.66016 6.29058 1.66016 14.5235L1.66016 37.0942C1.66016 45.3271 6.03209 49.9917 13.7484 49.9917H34.9231C42.6394 49.9917 46.9912 45.3271 46.9912 37.0942V14.5235C46.9912 6.29058 42.6394 1.62598 34.9231 1.62598Z"/>
</mask>
<path d="M34.9231 1.62598L13.7484 1.62598C6.03209 1.62598 1.66016 6.29058 1.66016 14.5235L1.66016 37.0942C1.66016 45.3271 6.03209 49.9917 13.7484 49.9917H34.9231C42.6394 49.9917 46.9912 45.3271 46.9912 37.0942V14.5235C46.9912 6.29058 42.6394 1.62598 34.9231 1.62598Z" fill="#00ACDD"/>
<path d="M34.9231 2.62598C35.4754 2.62598 35.9231 2.17826 35.9231 1.62598C35.9231 1.07369 35.4754 0.625977 34.9231 0.625977V2.62598ZM34.9231 0.625977C34.3708 0.625977 33.9231 1.07369 33.9231 1.62598C33.9231 2.17826 34.3708 2.62598 34.9231 2.62598V0.625977ZM34.9231 0.625977L13.7484 0.625977V2.62598L34.9231 2.62598V0.625977ZM13.7484 0.625977C9.68578 0.625977 6.37177 1.85947 4.08104 4.30355C1.79926 6.73807 0.660156 10.2381 0.660156 14.5235H2.66016C2.66016 10.576 3.70701 7.62725 5.54029 5.67124C7.36461 3.72479 10.0947 2.62598 13.7484 2.62598V0.625977ZM0.660156 14.5235L0.660156 37.0942H2.66016L2.66016 14.5235H0.660156ZM0.660156 37.0942C0.660156 41.3796 1.79926 44.8796 4.08104 47.3141C6.37177 49.7582 9.68578 50.9917 13.7484 50.9917V48.9917C10.0947 48.9917 7.36461 47.8929 5.54029 45.9464C3.70701 43.9904 2.66016 41.0417 2.66016 37.0942H0.660156ZM13.7484 50.9917H34.9231V48.9917H13.7484V50.9917ZM34.9231 50.9917C38.9858 50.9917 42.2954 49.7581 44.5812 47.3132C46.8578 44.8783 47.9912 41.3784 47.9912 37.0942H45.9912C45.9912 41.0428 44.9488 43.9917 43.1203 45.9473C41.3012 47.893 38.5767 48.9917 34.9231 48.9917V50.9917ZM47.9912 37.0942V14.5235H45.9912V37.0942H47.9912ZM47.9912 14.5235C47.9912 10.2392 46.8578 6.73932 44.5812 4.30444C42.2954 1.85956 38.9858 0.625977 34.9231 0.625977V2.62598C38.5767 2.62598 41.3012 3.72469 43.1203 5.67035C44.9488 7.626 45.9912 10.5748 45.9912 14.5235H47.9912Z" fill="url(#paint0_linear_42_153)" mask="url(#path-1-outside-1_42_153)"/>
</g>
<g filter="url(#filter1_bd_42_153)">
<mask id="path-3-inside-2_42_153" fill="white">
<path fill-rule="evenodd" clip-rule="evenodd" d="M24.4047 11.5142C23.3772 11.5142 22.531 12.417 22.531 13.5348V38.0831C22.531 39.1794 23.3772 40.0822 24.4047 40.0822C25.4524 40.0822 26.2985 39.1794 26.2985 38.0831V13.5348C26.2985 12.417 25.4524 11.5142 24.4047 11.5142ZM13.8278 19.4468C12.8003 19.4468 11.9541 20.3497 11.9541 21.4675L11.9541 38.0838C11.9541 39.1801 12.8003 40.0829 13.8278 40.0829C14.8754 40.0829 15.7216 39.1801 15.7216 38.0838V21.4675C15.7216 20.3497 14.8754 19.4468 13.8278 19.4468ZM32.9478 30.2376C32.9478 29.1198 33.794 28.217 34.8416 28.217C35.8691 28.217 36.7153 29.1198 36.7153 30.2376V38.0836C36.7153 39.1799 35.8691 40.0827 34.8215 40.0827C33.794 40.0827 32.9478 39.1799 32.9478 38.0836V30.2376Z"/>
</mask>
<path fill-rule="evenodd" clip-rule="evenodd" d="M24.4047 11.5142C23.3772 11.5142 22.531 12.417 22.531 13.5348V38.0831C22.531 39.1794 23.3772 40.0822 24.4047 40.0822C25.4524 40.0822 26.2985 39.1794 26.2985 38.0831V13.5348C26.2985 12.417 25.4524 11.5142 24.4047 11.5142ZM13.8278 19.4468C12.8003 19.4468 11.9541 20.3497 11.9541 21.4675L11.9541 38.0838C11.9541 39.1801 12.8003 40.0829 13.8278 40.0829C14.8754 40.0829 15.7216 39.1801 15.7216 38.0838V21.4675C15.7216 20.3497 14.8754 19.4468 13.8278 19.4468ZM32.9478 30.2376C32.9478 29.1198 33.794 28.217 34.8416 28.217C35.8691 28.217 36.7153 29.1198 36.7153 30.2376V38.0836C36.7153 39.1799 35.8691 40.0827 34.8215 40.0827C33.794 40.0827 32.9478 39.1799 32.9478 38.0836V30.2376Z" fill="url(#paint1_linear_42_153)"/>
<path d="M22.931 13.5348C22.931 12.6102 23.6248 11.9142 24.4047 11.9142V11.1142C23.1296 11.1142 22.131 12.2238 22.131 13.5348H22.931ZM22.931 38.0831V13.5348H22.131V38.0831H22.931ZM24.4047 39.6822C23.6221 39.6822 22.931 38.9833 22.931 38.0831H22.131C22.131 39.3755 23.1323 40.4822 24.4047 40.4822V39.6822ZM25.8985 38.0831C25.8985 38.9804 25.2101 39.6822 24.4047 39.6822V40.4822C25.6946 40.4822 26.6985 39.3783 26.6985 38.0831H25.8985ZM25.8985 13.5348V38.0831H26.6985V13.5348H25.8985ZM24.4047 11.9142C25.2074 11.9142 25.8985 12.6131 25.8985 13.5348H26.6985C26.6985 12.2209 25.6973 11.1142 24.4047 11.1142V11.9142ZM12.3541 21.4675C12.3541 20.5429 13.0479 19.8468 13.8278 19.8468V19.0468C12.5527 19.0468 11.5541 20.1564 11.5541 21.4675H12.3541ZM12.3541 38.0838L12.3541 21.4675H11.5541L11.5541 38.0838H12.3541ZM13.8278 39.6829C13.0452 39.6829 12.3541 38.984 12.3541 38.0838H11.5541C11.5541 39.3762 12.5553 40.4829 13.8278 40.4829V39.6829ZM15.3216 38.0838C15.3216 38.9811 14.6332 39.6829 13.8278 39.6829V40.4829C15.1177 40.4829 16.1216 39.379 16.1216 38.0838H15.3216ZM15.3216 21.4675V38.0838H16.1216V21.4675H15.3216ZM13.8278 19.8468C14.6305 19.8468 15.3216 20.5458 15.3216 21.4675H16.1216C16.1216 20.1536 15.1204 19.0468 13.8278 19.0468V19.8468ZM34.8416 27.817C33.549 27.817 32.5478 28.9237 32.5478 30.2376H33.3478C33.3478 29.3159 34.0389 28.617 34.8416 28.617V27.817ZM37.1153 30.2376C37.1153 28.9266 36.1167 27.817 34.8416 27.817V28.617C35.6215 28.617 36.3153 29.313 36.3153 30.2376H37.1153ZM37.1153 38.0836V30.2376H36.3153V38.0836H37.1153ZM34.8215 40.4827C36.1114 40.4827 37.1153 39.3789 37.1153 38.0836H36.3153C36.3153 38.9809 35.6269 39.6827 34.8215 39.6827V40.4827ZM32.5478 38.0836C32.5478 39.376 33.549 40.4827 34.8215 40.4827V39.6827C34.0389 39.6827 33.3478 38.9838 33.3478 38.0836H32.5478ZM32.5478 30.2376V38.0836H33.3478V30.2376H32.5478Z" fill="url(#paint2_linear_42_153)" mask="url(#path-3-inside-2_42_153)"/>
</g>
<defs>
<filter id="filter0_b_42_153" x="-14.3398" y="-14.374" width="77.3311" height="80.3657" filterUnits="userSpaceOnUse" color-interpolation-filters="sRGB">
<feFlood flood-opacity="0" result="BackgroundImageFix"/>
<feGaussianBlur in="BackgroundImageFix" stdDeviation="7.5"/>
<feComposite in2="SourceAlpha" operator="in" result="effect1_backgroundBlur_42_153"/>
<feBlend mode="normal" in="SourceGraphic" in2="effect1_backgroundBlur_42_153" result="shape"/>
</filter>
<filter id="filter1_bd_42_153" x="-3.0459" y="-3.48584" width="54.7607" height="58.5688" filterUnits="userSpaceOnUse" color-interpolation-filters="sRGB">
<feFlood flood-opacity="0" result="BackgroundImageFix"/>
<feGaussianBlur in="BackgroundImageFix" stdDeviation="7.5"/>
<feComposite in2="SourceAlpha" operator="in" result="effect1_backgroundBlur_42_153"/>
<feColorMatrix in="SourceAlpha" type="matrix" values="0 0 0 0 0 0 0 0 0 0 0 0 0 0 0 0 0 0 127 0" result="hardAlpha"/>
<feOffset dx="5" dy="5"/>
<feGaussianBlur stdDeviation="5"/>
<feColorMatrix type="matrix" values="0 0 0 0 1 0 0 0 0 0.447059 0 0 0 0 0.368627 0 0 0 0.5 0"/>
<feBlend mode="normal" in2="effect1_backgroundBlur_42_153" result="effect2_dropShadow_42_153"/>
<feBlend mode="normal" in="SourceGraphic" in2="effect2_dropShadow_42_153" result="shape"/>
</filter>
<linearGradient id="paint0_linear_42_153" x1="8.87612" y1="7.26064" x2="40.0892" y2="43.4933" gradientUnits="userSpaceOnUse">
<stop stop-color="white" stop-opacity="0.25"/>
<stop offset="1" stop-color="white" stop-opacity="0"/>
</linearGradient>
<linearGradient id="paint1_linear_42_153" x1="5.5447" y1="32.7185" x2="18.4079" y2="57.486" gradientUnits="userSpaceOnUse">
<stop stop-color="white"/>
<stop offset="1" stop-color="white" stop-opacity="0.2"/>
</linearGradient>
<linearGradient id="paint2_linear_42_153" x1="15.8957" y1="14.8425" x2="34.4913" y2="34.8041" gradientUnits="userSpaceOnUse">
<stop stop-color="white" stop-opacity="0.25"/>
<stop offset="1" stop-color="white" stop-opacity="0"/>
</linearGradient>
</defs>
</svg>
