<svg xmlns="http://www.w3.org/2000/svg" width="24" height="24" fill="none"><defs><clipPath id="a"><rect width="23" height="23" fill="#fff" fill-opacity="0" rx="0" transform="translate(.5 .5)"/></clipPath></defs><rect width="23" height="23" fill="none" rx="0" transform="translate(.5 .5)"/><g clip-path="url(#a)"><path fill="#D6B1FF" d="M5 1H2a.99.99 0 0 0-1 1v20c0 .26.1.51.29.7A1 1 0 0 0 2 23h3V1Z"/><path fill="#F03E3D" d="M7 23h10V1H7v22Zm5-4a1 1 0 0 1-.71-.3.984.984 0 0 1-.29-.7.99.99 0 0 1 1-1c.26 0 .51.1.7.29a1 1 0 0 1 .3.71c0 .26-.11.51-.3.7-.19.19-.44.3-.7.3Zm0-14c.26 0 .51.1.7.29A1 1 0 0 1 13 6c0 .26-.11.51-.3.7-.19.19-.44.3-.7.3a1 1 0 0 1-.71-.3A.984.984 0 0 1 11 6a.99.99 0 0 1 1-1Zm0 6c.26 0 .51.1.7.29a1 1 0 0 1 .3.71c0 .26-.11.51-.3.7-.19.19-.44.3-.7.3a1 1 0 0 1-.71-.3.984.984 0 0 1-.29-.7.99.99 0 0 1 1-1ZM22 1h-3v22h3c.26 0 .51-.11.7-.3.19-.19.3-.44.3-.7V2a1 1 0 0 0-.3-.71A.984.984 0 0 0 22 1Z"/></g></svg>