<svg xmlns="http://www.w3.org/2000/svg" width="140" height="42" fill="none"><defs><clipPath id="a"><rect width="139" height="41" fill="#fff" fill-opacity="0" rx="0" transform="translate(.5 .5)"/></clipPath></defs><rect width="139" height="41" fill="none" rx="0" transform="translate(.5 .5)"/><g clip-path="url(#a)"><path fill="#F60" d="m104.1 40.74 11.68-12.93-11.68-12.94h12.32l5.79 6.29 5.56-6.29h11.89l-11.62 12.88 11.78 12.99h-12.37l-5.73-6.34-5.67 6.34H104.1ZM104.1 9.08H90.88v5.79h13.22v8.74H90.88v8.02h13.22v9.11H81.16V0h22.94v9.08Z"/><path fill="#652C8F" d="M71.48 0v16.67h-.1c-2.15-2.43-4.82-3.27-7.93-3.27-6.36 0-11.15 4.26-12.84 9.9-1.91-6.21-6.86-10.02-14.2-10.02-5.96 0-10.66 2.64-13.12 6.93v-5.34H10.97V9.08h13.44V0H0v40.74h10.97V23.61h10.95c-.33 1.26-.5 2.61-.5 4.03 0 8.5 6.58 14.46 14.99 14.46 7.07 0 11.73-3.27 14.19-9.23h-9.41c-1.27 1.79-2.24 2.32-4.78 2.32-2.95 0-5.49-2.54-5.49-5.55h19.15c.83 6.75 6.17 12.58 13.49 12.58 3.16 0 6.05-1.53 7.82-4.12h.1v2.64h9.68V0h-9.68ZM31.22 23.73c.61-2.58 2.65-4.28 5.19-4.28 2.8 0 4.73 1.64 5.24 4.28H31.22Zm34.39 10.8c-3.57 0-5.78-3.27-5.78-6.69 0-3.66 1.92-7.18 5.78-7.18 4 0 5.59 3.52 5.59 7.18 0 3.46-1.69 6.69-5.59 6.69Z"/></g></svg>