<svg xmlns="http://www.w3.org/2000/svg" width="67.545" height="66.799" fill="none"><defs><linearGradient id="a" x1="36.391" x2="13.833" y1="35.42" y2="77.787" gradientUnits="userSpaceOnUse"><stop stop-color="#F03E3D"/><stop offset="1" stop-color="#870404"/></linearGradient><linearGradient id="d" x1="26.357" x2="53.469" y1="24.537" y2="61.478" gradientUnits="userSpaceOnUse"><stop stop-color="#FFF" stop-opacity=".251"/><stop offset="1" stop-color="#FFF" stop-opacity="0"/></linearGradient><linearGradient id="f" x1="40.362" x2="47.717" y1="44.096" y2="50.594" gradientUnits="userSpaceOnUse"><stop stop-color="#FFF" stop-opacity="0"/><stop offset="1" stop-color="#FFF" stop-opacity="0"/></linearGradient><linearGradient id="h" x1="64.877" x2="60.348" y1="19.555" y2="24.672" gradientUnits="userSpaceOnUse"><stop stop-color="#FF759F" stop-opacity="0"/><stop offset="1" stop-color="#FF196E"/></linearGradient><linearGradient id="j" x1="50.719" x2="26.317" y1="38.184" y2="55.608" gradientUnits="userSpaceOnUse"><stop stop-color="#FFF"/><stop offset="1" stop-color="#FFF" stop-opacity=".2"/></linearGradient><linearGradient id="k" x1="33.278" x2="47.702" y1="37.223" y2="49.089" gradientUnits="userSpaceOnUse"><stop stop-color="#FFF" stop-opacity=".251"/><stop offset="1" stop-color="#FFF" stop-opacity="0"/></linearGradient><filter id="b" width="65.243" height="66.795" x="0" y="0" color-interpolation-filters="sRGB" filterUnits="userSpaceOnUse"><feFlood flood-opacity="0" result="BackgroundImageFix"/><feBlend in="SourceGraphic" in2="BackgroundImageFix" result="shape"/><feGaussianBlur result="effect_layerBlur_1" stdDeviation="5.667"/></filter><filter id="c" width="44.579" height="48.703" x="18.58" y="18.096" color-interpolation-filters="sRGB" filterUnits="userSpaceOnUse"><feFlood flood-opacity="0" result="BackgroundImageFix"/><feGaussianBlur in="BackgroundImage" stdDeviation="8"/><feComposite in2="SourceAlpha" operator="in" result="effect_backgroundBlur_1"/><feBlend in="SourceGraphic" in2="effect_backgroundBlur_1" result="shape"/></filter><filter id="e" width="31.551" height="28.215" x="33.523" y="38.139" color-interpolation-filters="sRGB" filterUnits="userSpaceOnUse"><feFlood flood-opacity="0" result="BackgroundImageFix"/><feGaussianBlur in="BackgroundImage" stdDeviation="5"/><feComposite in2="SourceAlpha" operator="in" result="effect_backgroundBlur_1"/><feColorMatrix in="SourceAlpha" result="hardAlpha" values="0 0 0 0 0 0 0 0 0 0 0 0 0 0 0 0 0 0 127 0"/><feOffset dx="5" dy="5"/><feGaussianBlur stdDeviation="3.333"/><feComposite in2="hardAlpha" k2="-1" k3="1" operator="out"/><feColorMatrix values="0 0 0 0 0.57647 0 0 0 0 0.36078 0 0 0 0 0.93725 0 0 0 0.5 0"/><feBlend in2="effect_backgroundBlur_1" result="effect_dropShadow_2"/><feBlend in="SourceGraphic" in2="effect_dropShadow_2" result="shape"/></filter><filter id="g" width="6.256" height="6.863" x="61.289" y="15.665" color-interpolation-filters="sRGB" filterUnits="userSpaceOnUse"><feFlood flood-opacity="0" result="BackgroundImageFix"/><feGaussianBlur in="BackgroundImage" stdDeviation="5"/><feComposite in2="SourceAlpha" operator="in" result="effect_backgroundBlur_1"/><feBlend in="SourceGraphic" in2="effect_backgroundBlur_1" result="shape"/></filter><filter id="i" width="42.653" height="35.001" x="24.672" y="30.475" color-interpolation-filters="sRGB" filterUnits="userSpaceOnUse"><feFlood flood-opacity="0" result="BackgroundImageFix"/><feGaussianBlur in="BackgroundImage" stdDeviation="5"/><feComposite in2="SourceAlpha" operator="in" result="effect_backgroundBlur_1"/><feColorMatrix in="SourceAlpha" result="hardAlpha" values="0 0 0 0 0 0 0 0 0 0 0 0 0 0 0 0 0 0 127 0"/><feOffset dx="5" dy="5"/><feGaussianBlur stdDeviation="3.333"/><feComposite in2="hardAlpha" k2="-1" k3="1" operator="out"/><feColorMatrix values="0 0 0 0 1 0 0 0 0 0.32157 0 0 0 0 0.54902 0 0 0 0.5 0"/><feBlend in2="effect_backgroundBlur_1" result="effect_dropShadow_2"/><feBlend in="SourceGraphic" in2="effect_dropShadow_2" result="shape"/></filter></defs><path fill="url(#a)" d="m37.22 8.22-19.53 6.01c-7.12 2.19-10.15 7.71-8.39 15.26l4.82 20.68c1.76 7.55 6.79 10.58 13.91 8.39l19.53-6.01c7.12-2.19 10.13-7.7 8.37-15.25l-4.82-20.68c-1.76-7.55-6.77-10.59-13.89-8.4Z"/><g filter="url(#b)" opacity=".5"><path fill="#E31313" d="m35.82 17.47-12.9 3.97c-4.7 1.45-6.74 4.96-5.63 9.7l3.03 13.01c1.11 4.74 4.4 6.61 9.1 5.16l12.9-3.97c4.7-1.45 6.73-4.95 5.62-9.69l-3.03-13.01c-1.11-4.74-4.39-6.61-9.09-5.17Z"/></g><g filter="url(#c)"><path fill="#F03E3D" d="M50.1 19.09H31.65c-7.22 0-12.08 5.56-12.08 13.82v19.08c0 8.25 4.86 13.8 12.08 13.8H50.1c7.22 0 12.05-5.55 12.05-13.8V32.91c0-8.26-4.83-13.82-12.05-13.82Z"/><path fill="url(#d)" fill-rule="evenodd" d="M50.1 18.09H31.65q-3.47 0-6.15 1.45-1.86 1-3.35 2.71-.5.56-.92 1.18-2.66 3.82-2.66 9.48v19.08q0 5.63 2.63 9.44.44.63.95 1.21 1.49 1.7 3.35 2.71 2.68 1.44 6.15 1.44H50.1q3.47 0 6.15-1.44 1.86-1.01 3.34-2.71.49-.56.91-1.17 2.65-3.82 2.65-9.48V32.91q0-5.69-2.67-9.52-.41-.59-.89-1.14-1.48-1.71-3.34-2.71-2.68-1.45-6.15-1.45Zm-18.45 1H50.1c7.22 0 12.05 5.56 12.05 13.82v19.08c0 8.25-4.83 13.8-12.05 13.8H31.65c-7.22 0-12.08-5.55-12.08-13.8V32.91c0-8.26 4.86-13.82 12.08-13.82Z"/></g><g filter="url(#e)"/><g filter="url(#g)"><path fill="url(#h)" d="M64.41 15.66c-1.73 0-3.13 1.54-3.13 3.43 0 1.9 1.4 3.43 3.13 3.43s3.13-1.53 3.13-3.43c0-.91-.33-1.78-.92-2.43-.58-.64-1.38-1-2.21-1Z"/></g><g filter="url(#i)"><path fill="url(#j)" d="m52 38.31-6.08 8.61c-.26.37-.64.62-1.07.67-.42.06-.85-.07-1.18-.36l-5.84-5.03-5.26 7.47c-.38.66-1.12.96-1.8.72-.69-.24-1.14-.95-1.1-1.73 0-.39.12-.76.34-1.07l6.29-8.89c.25-.37.63-.62 1.05-.68.42-.06.84.06 1.17.35l5.84 5.04 5.13-7.24c.25-.37.62-.62 1.04-.68.42-.07.84.05 1.17.34.69.59.82 1.67.3 2.44v.04Z"/><path fill="url(#k)" fill-rule="evenodd" d="m38.14 42.46 5.53 4.77c.33.29.76.42 1.18.36.43-.05.81-.3 1.07-.67L52 38.31v-.04c.52-.77.39-1.85-.3-2.44-.33-.29-.75-.41-1.17-.34-.42.06-.79.31-1.04.68l-4.89 6.91-.24.33-.3-.26-5.54-4.78c-.33-.29-.75-.41-1.17-.35-.42.06-.8.31-1.05.68l-6.29 8.89c-.22.31-.34.68-.34 1.07-.04.78.41 1.49 1.1 1.73.68.24 1.42-.06 1.8-.72l5.03-7.14.23-.33.31.26Zm13.46-4.28-6.01 8.51q-.12.17-.27.29-.04.03-.09.06-.13.08-.28.13-.07.02-.15.03-.1.01-.21.01-.12-.01-.24-.05l-.12-.04q-.16-.07-.29-.19l-6.18-5.32-5.53 7.84-.01.02q-.14.25-.36.4-.1.08-.23.12-.18.08-.37.08-.18.01-.36-.06-.13-.04-.24-.11-.22-.14-.37-.38-.1-.15-.15-.32-.08-.24-.07-.52v-.02q0-.29.09-.53.07-.16.17-.3l6.29-8.9q.14-.21.34-.34.01-.01.02-.01.13-.09.28-.13.07-.02.15-.04.1-.01.2 0 .12 0 .24.04l.12.04q.16.07.29.18L44.44 44l5.38-7.6.01-.01q.11-.16.26-.28l.08-.06q.13-.09.28-.13.07-.03.14-.04.11-.01.21-.01.12.01.24.04l.12.04q.15.07.28.18.04.03.08.07.14.14.24.33.03.06.05.12.07.18.1.38.02.15.01.31-.01.11-.04.21-.04.18-.12.34-.04.08-.09.15l-.07.1v.04Z"/></g></svg>