<svg xmlns="http://www.w3.org/2000/svg" width="70.73" height="70.143" fill="none"><defs><linearGradient id="b" x1="35.793" x2="12.839" y1="34.892" y2="78.785" gradientUnits="userSpaceOnUse"><stop stop-color="#11B5E4"/><stop offset="1" stop-color="#035B81"/></linearGradient><linearGradient id="e" x1="27.891" x2="56.755" y1="22.32" y2="60.576" gradientUnits="userSpaceOnUse"><stop stop-color="#FFF" stop-opacity=".251"/><stop offset="1" stop-color="#FFF" stop-opacity="0"/></linearGradient><linearGradient id="g" x1="24.559" x2="62.305" y1="47.778" y2="59.623" gradientUnits="userSpaceOnUse"><stop stop-color="#FFF"/><stop offset="1" stop-color="#FFF" stop-opacity=".2"/></linearGradient><linearGradient id="i" x1="34.91" x2="50.677" y1="29.902" y2="52.499" gradientUnits="userSpaceOnUse"><stop stop-color="#FFF" stop-opacity=".251"/><stop offset="1" stop-color="#FFF" stop-opacity="0"/></linearGradient><filter id="a" width="50.455" height="53.832" x="6.557" y="5.768" color-interpolation-filters="sRGB" filterUnits="userSpaceOnUse"><feFlood flood-opacity="0" result="BackgroundImageFix"/><feGaussianBlur in="BackgroundImage" stdDeviation="4.333"/><feComposite in2="SourceAlpha" operator="in" result="effect_backgroundBlur_1"/><feBlend in="SourceGraphic" in2="effect_backgroundBlur_1" result="shape"/></filter><filter id="c" width="59.68" height="63.128" x="0" y="0" color-interpolation-filters="sRGB" filterUnits="userSpaceOnUse"><feFlood flood-opacity="0" result="BackgroundImageFix"/><feBlend in="SourceGraphic" in2="BackgroundImageFix" result="shape"/><feGaussianBlur result="effect_layerBlur_1" stdDeviation="4.333"/></filter><filter id="d" width="47.331" height="50.366" x="19.675" y="15.685" color-interpolation-filters="sRGB" filterUnits="userSpaceOnUse"><feFlood flood-opacity="0" result="BackgroundImageFix"/><feGaussianBlur in="BackgroundImage" stdDeviation="5"/><feComposite in2="SourceAlpha" operator="in" result="effect_backgroundBlur_1"/><feBlend in="SourceGraphic" in2="effect_backgroundBlur_1" result="shape"/></filter><filter id="f" width="44.761" height="48.569" x="25.969" y="21.574" color-interpolation-filters="sRGB" filterUnits="userSpaceOnUse"><feFlood flood-opacity="0" result="BackgroundImageFix"/><feGaussianBlur in="BackgroundImage" stdDeviation="5"/><feComposite in2="SourceAlpha" operator="in" result="effect_backgroundBlur_1"/><feColorMatrix in="SourceAlpha" result="hardAlpha" values="0 0 0 0 0 0 0 0 0 0 0 0 0 0 0 0 0 0 127 0"/><feOffset dx="5" dy="5"/><feGaussianBlur stdDeviation="3.333"/><feComposite in2="hardAlpha" k2="-1" k3="1" operator="out"/><feColorMatrix values="0 0 0 0 1 0 0 0 0 0.44706 0 0 0 0 0.36863 0 0 0 0.5 0"/><feBlend in2="effect_backgroundBlur_1" result="effect_dropShadow_2"/><feBlend in="SourceGraphic" in2="effect_dropShadow_2" result="shape"/></filter></defs><g filter="url(#a)"><path fill="url(#b)" d="m36.15 6.4-20.46 5.84c-7.45 2.13-10.54 7.85-8.54 15.8l5.47 21.8c2 7.95 7.35 11.25 14.81 9.12l20.45-5.85c7.46-2.13 10.53-7.84 8.53-15.79l-5.47-21.8c-2-7.95-7.34-11.26-14.79-9.12Z"/></g><g filter="url(#c)" opacity=".5"><path fill="#11B5E4" d="m46.23 34.97-3.72-15.02c-1.34-5.44-4.72-7.88-9.15-6.63l-15.02 4.23c-4.5 1.26-6.25 5.15-4.9 10.59l3.71 15.02c1.37 5.53 4.66 7.9 9.17 6.63l15.02-4.23c4.43-1.25 6.26-5.06 4.89-10.59Z"/></g><g filter="url(#d)"><path fill="#00ACDD" d="M53.93 16.68H32.76c-7.72 0-12.09 4.66-12.09 12.9v22.57c0 8.23 4.37 12.9 12.09 12.9h21.17c7.72 0 12.07-4.67 12.07-12.9V29.58c0-8.24-4.35-12.9-12.07-12.9Z"/><path fill="url(#e)" fill-rule="evenodd" d="M53.93 15.68H32.76q-6.15 0-9.41 3.07-3.68 3.46-3.68 10.83v22.57q0 7.36 3.68 10.83 3.26 3.07 9.41 3.07h21.17q5.06 0 8.28-2.44.74-.56 1.38-1.24l.32-.36Q67 58.41 67 52.15V29.58q0-7.38-3.68-10.84-3.25-3.06-9.39-3.06Zm-21.17 1h21.17c7.72 0 12.07 4.66 12.07 12.9v22.57c0 8.23-4.35 12.9-12.07 12.9H32.76c-7.72 0-12.09-4.67-12.09-12.9V29.58c0-8.24 4.37-12.9 12.09-12.9Z"/></g><g filter="url(#f)"><mask id="h" fill="#fff"><path fill-rule="evenodd" d="M43.42 26.574c-1.028 0-1.874.903-1.874 2.02v24.549c0 1.096.846 1.999 1.873 1.999 1.048 0 1.894-.903 1.894-2V28.595c0-1.117-.846-2.02-1.894-2.02Zm-12.451 9.953c0-1.118.846-2.02 1.873-2.02 1.048 0 1.894.902 1.894 2.02v16.617c0 1.096-.846 1.999-1.894 1.999-1.027 0-1.873-.903-1.873-2V36.528Zm20.993 8.77c0-1.118.847-2.02 1.894-2.02 1.028 0 1.874.902 1.874 2.02v7.846c0 1.096-.846 2-1.894 2-1.027 0-1.874-.904-1.874-2v-7.846Z" clip-rule="evenodd"/></mask><path fill="url(#g)" fill-rule="evenodd" d="M43.42 26.574c-1.028 0-1.874.903-1.874 2.02v24.549c0 1.096.846 1.999 1.873 1.999 1.048 0 1.894-.903 1.894-2V28.595c0-1.117-.846-2.02-1.894-2.02Zm-12.451 9.953c0-1.118.846-2.02 1.873-2.02 1.048 0 1.894.902 1.894 2.02v16.617c0 1.096-.846 1.999-1.894 1.999-1.027 0-1.873-.903-1.873-2V36.528Zm20.993 8.77c0-1.118.847-2.02 1.894-2.02 1.028 0 1.874.902 1.874 2.02v7.846c0 1.096-.846 2-1.894 2-1.027 0-1.874-.904-1.874-2v-7.846Z" clip-rule="evenodd" mask="url(#h)"/><path fill="url(#i)" fill-rule="evenodd" d="M41.546 28.594c0-1.117.846-2.02 1.873-2.02 1.048 0 1.894.903 1.894 2.02v24.549c0 1.096-.846 1.999-1.894 1.999-1.027 0-1.873-.903-1.873-2V28.595Zm1.617-1.596q.126-.024.256-.024.146 0 .286.029.148.03.288.094.075.034.146.076.18.107.328.266.071.075.131.158.118.164.194.357.04.102.068.207.053.21.053.433v24.549q0 .2-.045.39-.028.12-.075.236-.071.178-.179.331-.066.094-.146.179-.144.153-.318.258-.076.045-.157.082-.14.062-.285.093-.141.03-.289.03-.123 0-.243-.022-.162-.03-.317-.1-.064-.03-.125-.065-.189-.109-.345-.275-.078-.084-.143-.177-.109-.154-.18-.334-.05-.125-.08-.254-.04-.182-.04-.372V28.594q0-.222.052-.43.027-.107.068-.21.078-.197.197-.363.059-.08.127-.154.158-.169.35-.28.058-.033.12-.06.147-.069.303-.099Zm-10.32 7.508c-1.028 0-1.874.903-1.874 2.02v16.618c0 1.096.846 1.999 1.873 1.999 1.048 0 1.894-.903 1.894-2V36.528c0-1.118-.846-2.02-1.894-2.02Zm-1.474 18.638V36.527q0-.217.05-.42.028-.112.07-.22.08-.203.204-.372.056-.076.12-.145.158-.17.349-.28.059-.033.12-.061.153-.07.314-.1.12-.023.246-.023.152 0 .297.032.142.03.277.092.075.034.146.076.18.106.328.265.073.078.135.165.116.161.19.35.041.102.068.208.053.21.053.433v16.617q0 .192-.041.375-.03.127-.079.25-.071.18-.18.333-.065.094-.144.177-.151.16-.333.267-.069.04-.142.073-.144.065-.294.095-.137.029-.28.029-.124 0-.243-.022-.163-.03-.318-.1-.062-.029-.121-.063-.191-.11-.349-.278-.077-.081-.14-.172-.11-.156-.184-.338-.05-.125-.079-.254-.04-.182-.04-.372Zm22.487-9.868c-1.047 0-1.894.903-1.894 2.021v7.846c0 1.096.847 2 1.874 2 1.048 0 1.894-.904 1.894-2v-7.846c0-1.118-.846-2.02-1.874-2.02Zm-1.494 9.867v-7.846q0-.23.057-.445.026-.1.064-.195.077-.195.197-.36.059-.082.128-.156.15-.16.333-.268.069-.04.142-.073.134-.06.275-.091.146-.032.298-.032.127 0 .249.023.16.03.312.099.063.03.124.064.189.11.345.277.068.073.126.154.12.166.197.363.042.105.07.213.051.207.051.427v7.846q0 .2-.044.388-.029.121-.076.238-.07.177-.177.33-.067.095-.148.18-.149.157-.328.264-.07.042-.147.076-.137.062-.28.092-.144.031-.294.031-.124 0-.244-.022-.162-.03-.317-.1-.064-.03-.125-.064-.188-.11-.344-.276-.079-.083-.144-.176-.108-.155-.18-.334-.05-.125-.079-.255-.04-.181-.04-.372Z" clip-rule="evenodd"/></g></svg>