<svg xmlns="http://www.w3.org/2000/svg" width="146" height="50" fill="none"><defs><clipPath id="a"><rect width="145" height="49" fill="#fff" fill-opacity="0" rx="0" transform="translate(.5 .5)"/></clipPath></defs><rect width="145" height="49" fill="none" rx="0" transform="translate(.5 .5)"/><g clip-path="url(#a)"><path fill="#EA4335" d="M62.13 25.64c0 6.94-5.37 12.05-11.95 12.05-6.58 0-11.94-5.11-11.94-12.05 0-6.99 5.36-12.06 11.94-12.06 6.58 0 11.95 5.07 11.95 12.06Zm-5.23 0c0-4.34-3.11-7.31-6.72-7.31-3.6 0-6.71 2.97-6.71 7.31 0 4.29 3.11 7.3 6.71 7.3 3.61 0 6.72-3.02 6.72-7.3Z"/><path fill="#FBBC05" d="M87.89 25.64c0 6.94-5.36 12.05-11.94 12.05-6.58 0-11.95-5.11-11.95-12.05 0-6.99 5.37-12.06 11.95-12.06 6.58 0 11.94 5.07 11.94 12.06Zm-5.23 0c0-4.34-3.11-7.31-6.71-7.31-3.61 0-6.72 2.97-6.72 7.31 0 4.29 3.11 7.3 6.72 7.3 3.6 0 6.71-3.02 6.71-7.3Z"/><path fill="#4285F4" d="M112.58 14.31v21.64c0 8.9-5.18 12.54-11.31 12.54-5.77 0-9.25-3.91-10.56-7.1l4.56-1.92c.81 1.96 2.79 4.27 5.99 4.27 3.93 0 6.36-2.45 6.36-7.06v-1.73h-.19c-1.17 1.46-3.42 2.74-6.27 2.74-5.95 0-11.4-5.25-11.4-12.01 0-6.8 5.45-12.1 11.4-12.1 2.84 0 5.1 1.28 6.27 2.7h.19v-1.96h4.96v-.01Zm-4.59 11.37c0-4.24-2.8-7.35-6.36-7.35-3.61 0-6.63 3.11-6.63 7.35 0 4.2 3.02 7.26 6.63 7.26 3.56 0 6.36-3.06 6.36-7.26Z"/><path fill="#34A853" d="M120.77 1.63v35.32h-5.1V1.63h5.1Z"/><path fill="#EA4335" d="m140.64 29.6 4.06 2.74c-1.31 1.96-4.47 5.35-9.92 5.35-6.77 0-11.82-5.3-11.82-12.06 0-7.17 5.1-12.05 11.23-12.05 6.18 0 9.2 4.97 10.19 7.67l.54 1.36-15.91 6.68c1.22 2.42 3.11 3.65 5.77 3.65 2.66 0 4.51-1.33 5.86-3.34Zm-12.49-4.33 10.64-4.48c-.59-1.5-2.35-2.55-4.42-2.55-2.66 0-6.36 2.37-6.22 7.03Z"/><path fill="#4285F4" d="M18.94 22.5v-5.11h17.02c.16.89.25 1.94.25 3.08 0 3.84-1.04 8.58-4.37 11.97-3.25 3.42-7.4 5.25-12.9 5.25C8.76 37.69.19 29.28.19 18.97.19 8.65 8.76.25 18.94.25c5.64 0 9.65 2.24 12.67 5.16l-3.56 3.61c-2.17-2.06-5.1-3.66-9.11-3.66-7.44 0-13.26 6.08-13.26 13.61 0 7.53 5.82 13.6 13.26 13.6 4.82 0 7.57-1.96 9.33-3.74 1.43-1.45 2.37-3.51 2.74-6.34l-12.07.01Z"/></g></svg>