<svg xmlns="http://www.w3.org/2000/svg" width="40" height="36" fill="none"><rect width="39" height="35" fill="none" rx="0" transform="translate(.5 .5)"/><path fill="#02BC6B" fill-rule="evenodd" d="M3.133 34.114C1.41 34.114 0 32.718 0 31.012V20.168h7.886v-.012h4.74c1.222-.03 2.256-1.085 2.256-2.326 0-1.272-1.065-2.326-2.35-2.326H6.266v.002H0v-3.104C0 10.696 1.41 9.3 3.133 9.3h9.4c2.38 0 4.417.838 6.077 2.512 1.692 1.644 2.538 3.66 2.538 6.018 0 2.326-.814 4.342-2.475 5.986-1.66 1.644-3.666 2.513-6.015 2.544H6.266v4.652c0 1.706-1.41 3.102-3.133 3.102Z" clip-rule="evenodd"/><path fill="#02897A" fill-rule="evenodd" d="M25.09 5.7c3.46 3.32 5.21 7.47 5.21 12.18 0 4.63-1.67 8.78-5.08 12.12l-4.84-4.51c2.12-2.08 3.16-4.58 3.16-7.61 0-3.05-1.07-5.55-3.24-7.63l4.79-4.55Z"/><path fill="#035B81" fill-rule="evenodd" d="M32.5 0c4.99 4.92 7.49 11.03 7.49 18.05 0 6.9-2.4 13.01-7.31 17.95l-4.67-4.52c3.66-3.68 5.45-8.14 5.45-13.43 0-5.35-1.85-9.81-5.59-13.49L32.5 0Z"/><path fill="#028E37" fill-rule="evenodd" d="M0 26.386h6.266v4.627c0 1.706-1.41 3.101-3.133 3.101S0 32.72 0 31.013v-4.627Z" clip-rule="evenodd"/></svg>