<svg xmlns="http://www.w3.org/2000/svg" width="213" height="44" fill="none"><defs><clipPath id="a"><rect width="212" height="43" fill="#fff" fill-opacity="0" rx="0" transform="translate(.5 .5)"/></clipPath></defs><rect width="212" height="43" fill="none" rx="0" transform="translate(.5 .5)"/><g clip-path="url(#a)"><path fill="#737373" d="m75.18 25.34-1.27 3.48h-.11c-.21-.79-.59-1.98-1.23-3.41L65.76 8.86H59.1v26.37h4.41V18.96c0-1.02 0-2.18-.04-3.62-.03-.71-.1-1.26-.14-1.67h.11c.21 1.03.46 1.78.63 2.25l8.18 19.24h3.11l8.11-19.41c.17-.44.35-1.33.53-2.08h.1c-.1 1.95-.17 3.69-.21 4.74v16.72h4.69V8.79h-6.42l-6.98 16.55Zm17.84-9.11h4.59v18.9h-4.59v-18.9Zm2.33-7.98c-.77 0-1.41.27-1.94.75a2.38 2.38 0 0 0-.81 1.84c0 .72.28 1.33.81 1.81s1.17.72 1.94.72c.78 0 1.45-.28 1.94-.72.53-.48.81-1.09.81-1.81 0-.71-.28-1.33-.81-1.84-.46-.48-1.13-.75-1.94-.75Zm18.52 7.81c-.85-.17-1.73-.27-2.58-.27-2.08 0-3.98.44-5.57 1.33-1.59.88-2.86 2.11-3.67 3.65-.84 1.57-1.27 3.37-1.27 5.45 0 1.81.43 3.42 1.24 4.88.81 1.43 1.94 2.59 3.45 3.38 1.45.78 3.14 1.19 5.05 1.19 2.18 0 4.05-.44 5.53-1.26l.04-.03v-4.1l-.18.14c-.67.48-1.44.89-2.22 1.13-.81.27-1.55.4-2.19.4-1.83 0-3.28-.51-4.3-1.63-1.06-1.09-1.59-2.59-1.59-4.47 0-1.94.53-3.48 1.63-4.61 1.09-1.12 2.54-1.7 4.3-1.7 1.48 0 3 .48 4.37 1.43l.18.14v-4.33l-.04-.04c-.6-.24-1.27-.51-2.18-.68Zm15.12-.14c-1.12 0-2.18.34-3.1 1.06-.77.61-1.3 1.5-1.76 2.56h-.04v-3.31h-4.58v18.9h4.58v-9.66c0-1.63.36-3 1.13-3.99.78-1.02 1.76-1.53 2.96-1.53.43 0 .85.1 1.38.17.49.14.85.27 1.09.44l.18.14v-4.44l-.11-.03c-.31-.2-.95-.31-1.73-.31Zm12.49-.1c-3.21 0-5.79.92-7.58 2.73-1.84 1.81-2.72 4.3-2.72 7.44 0 2.93.92 5.32 2.68 7.06 1.76 1.7 4.16 2.59 7.16 2.59 3.14 0 5.64-.92 7.44-2.76 1.83-1.85 2.72-4.3 2.72-7.34 0-3-.85-5.39-2.58-7.13-1.66-1.74-4.09-2.59-7.12-2.59Zm3.66 14.53c-.84 1.06-2.18 1.57-3.84 1.57-1.66 0-3-.51-3.95-1.64-.95-1.05-1.41-2.59-1.41-4.53 0-2.02.5-3.55 1.41-4.64.95-1.09 2.26-1.64 3.92-1.64 1.62 0 2.89.51 3.81 1.57.91 1.06 1.41 2.59 1.41 4.6-.07 2.05-.46 3.65-1.35 4.71Zm16.26-6.27c-1.44-.58-2.36-1.03-2.78-1.4-.36-.34-.53-.82-.53-1.44 0-.51.21-1.02.74-1.36.53-.34 1.13-.51 2.01-.51.77 0 1.58.14 2.36.34.78.2 1.48.51 2.05.92l.17.14v-4.16l-.1-.04c-.53-.2-1.24-.41-2.08-.58-.85-.13-1.63-.2-2.26-.2-2.19 0-3.99.51-5.4 1.63-1.41 1.06-2.08 2.49-2.08 4.17 0 .88.14 1.67.46 2.32.32.64.78 1.26 1.41 1.77.64.48 1.55 1.02 2.82 1.53 1.06.45 1.87.79 2.37 1.06.49.27.81.58 1.05.82.18.27.29.61.29 1.06 0 1.26-.99 1.87-3 1.87-.78 0-1.59-.13-2.54-.44s-1.83-.75-2.58-1.26l-.17-.14v4.33l.11.04c.67.3 1.48.51 2.46.75.99.17 1.87.3 2.65.3 2.36 0 4.3-.51 5.68-1.63 1.41-1.09 2.15-2.49 2.15-4.3 0-1.26-.36-2.39-1.13-3.24a14.23 14.23 0 0 0-4.13-2.35Zm17.35-8.26c-3.21 0-5.78.92-7.58 2.73-1.8 1.81-2.71 4.3-2.71 7.44 0 2.93.91 5.32 2.68 7.06 1.76 1.7 4.16 2.59 7.15 2.59 3.14 0 5.65-.92 7.45-2.76 1.83-1.85 2.71-4.3 2.71-7.34 0-3-.85-5.39-2.57-7.13-1.66-1.74-4.09-2.59-7.13-2.59Zm3.64 14.53c-.85 1.06-2.19 1.57-3.85 1.57-1.69 0-3-.51-3.95-1.64-.95-1.05-1.41-2.59-1.41-4.53 0-2.02.5-3.55 1.41-4.64.95-1.09 2.26-1.64 3.92-1.64 1.58 0 2.89.51 3.81 1.57.91 1.06 1.41 2.59 1.41 4.6 0 2.05-.46 3.65-1.34 4.71Zm30.57-10.47v-3.65h-4.62v-5.59l-.14.03-4.37 1.26-.11.04v4.26h-6.91v-2.39c0-1.09.28-1.94.77-2.49.5-.54 1.24-.82 2.16-.82.63 0 1.3.14 2.04.45l.18.1V7.23l-.11-.04c-.63-.2-1.48-.34-2.57-.34-1.38 0-2.58.31-3.67.82-1.09.58-1.9 1.36-2.5 2.42-.6 1.02-.92 2.18-.92 3.51v2.63h-3.21v3.62h3.21v15.28h4.62V19.88h6.91v9.72c0 3.99 1.94 6 5.82 6 .63 0 1.3-.1 1.94-.2.67-.14 1.16-.31 1.44-.44l.04-.04v-3.65l-.18.14c-.28.17-.52.31-.95.41-.35.1-.67.13-.92.13-.91 0-1.55-.2-2.01-.71-.42-.48-.63-1.26-.63-2.42v-8.94h4.69Z"/><path fill="#F25022" d="M0 0h21.61v20.9H0V0Z"/><path fill="#7FBA00" d="M23.87 0h21.62v20.9H23.87V0Z"/><path fill="#00A4EF" d="M0 23.09h21.61V44H0V23.09Z"/><path fill="#FFB900" d="M23.87 23.09h21.62V44H23.87V23.09Z"/></g></svg>