<svg xmlns="http://www.w3.org/2000/svg" width="17.143" height="13.089" fill="none"><path fill="#FFF" fill-rule="evenodd" d="M10.65 5.44 9.48 4.9V3.84c0-.5-.41-.91-.91-.91s-.91.41-.91.91v5.47c0 2.09-1.74 3.77-3.83 3.77C1.71 13.08 0 11.37 0 9.25V6.88h2.92v2.34c0 .51.41.91.91.91s.92-.4.92-.91V3.68C4.75 1.64 6.5 0 8.57 0c2.08 0 3.82 1.65 3.82 3.71v1.21l-1.74.52Zm3.56 3.89V6.88h2.93v2.37a3.83 3.83 0 0 1-3.83 3.83c-2.11 0-3.83-1.69-3.83-3.79V6.9l1.17.54 1.74-.52v2.41c0 .5.41.91.91.91s.91-.41.91-.91Z"/></svg>