<svg xmlns="http://www.w3.org/2000/svg" width="24" height="24" fill="none"><defs><clipPath id="a"><rect width="23" height="23" fill="#fff" fill-opacity="0" rx="0" transform="translate(.5 .5)"/></clipPath></defs><rect width="23" height="23" fill="none" rx="0" transform="translate(.5 .5)"/><g clip-path="url(#a)"><path fill="#D6B1FF" d="M21 24h-9a1 1 0 0 1-.71-.3.984.984 0 0 1-.29-.7v-2a.99.99 0 0 1 1-1h9c.26 0 .51.1.7.29a1 1 0 0 1 .3.71v2c0 .26-.11.51-.3.7-.19.19-.44.3-.7.3Z"/><path fill="#11B5E4" d="M21 0H3a.99.99 0 0 0-1 1v2c0 .26.1.51.29.7A1 1 0 0 0 3 4h18c.26 0 .51-.11.7-.3.19-.19.3-.44.3-.7V1a1 1 0 0 0-.3-.71A.984.984 0 0 0 21 0ZM21 6H3a.99.99 0 0 0-1 1v10c0 .26.1.51.29.7A1 1 0 0 0 3 18h18c.26 0 .51-.11.7-.3.19-.19.3-.44.3-.7V7a1 1 0 0 0-.3-.71A.984.984 0 0 0 21 6Z"/></g></svg>