<svg xmlns="http://www.w3.org/2000/svg" width="13.714" height="16" fill="none"><path fill="#FFF" fill-rule="evenodd" d="M13.42 1.14h-.85c0 3.3-1.58 5.69-3.33 6.86 1.75 1.16 3.33 3.55 3.33 6.85h.85c.16 0 .29.13.29.29v.57c0 .16-.13.29-.29.29H.28c-.16 0-.28-.13-.28-.29v-.57c0-.16.12-.29.28-.29h.86c0-3.3 1.58-5.69 3.33-6.85-1.75-1.17-3.33-3.56-3.33-6.86H.28C.12 1.14 0 1.01 0 .85V.28C0 .12.12 0 .28 0h13.14c.16 0 .29.12.29.28v.57c0 .16-.13.29-.29.29Zm-2.76 3.43c.47-.98.76-2.13.76-3.43H2.28c0 1.3.3 2.45.76 3.43h7.62ZM2.79 12h8.12c-.66-1.73-1.84-2.95-3.03-3.43H5.83c-1.19.48-2.38 1.7-3.04 3.43Z"/></svg>