<svg xmlns="http://www.w3.org/2000/svg" width="18" height="28" fill="none"><defs><clipPath id="a"><rect width="17" height="27" fill="#fff" fill-opacity="0" rx="0" transform="translate(.5 .5)"/></clipPath></defs><rect width="17" height="27" fill="none" rx="0" transform="translate(.5 .5)"/><g clip-path="url(#a)"><path fill="#02897A" d="M14.81 2H3.18C1.97 2 1 3 1 4.25v19.5C1 24.99 1.97 26 3.18 26h11.63c1.21 0 2.19-1.01 2.19-2.25V4.25C17 3 16.02 2 14.81 2Zm-3.63 20.95c0 .46-.33.8-.73.8H7.5c-.36 0-.69-.34-.69-.75 0-.42.33-.75.73-.75h2.91c.4 0 .73.33.73.7ZM14.09 20H3.9V5h10.19v15Z"/></g></svg>