<svg xmlns="http://www.w3.org/2000/svg" width="18.345" height="18.349" fill="none"><path fill="#F3CD03" d="m4.14 11.3-1.37 5.92c-.04.18-.03.36.04.54.06.17.18.32.33.42.15.11.33.16.52.16.18 0 .36-.05.51-.15l5-3.33 4.99 3.33c.16.1.34.15.53.15s.37-.07.52-.18c.15-.11.27-.26.33-.44s.06-.37.01-.55l-1.67-5.87 4.16-3.74a.99.99 0 0 0 .27-.45.87.87 0 0 0-.02-.53.936.936 0 0 0-.3-.43c-.15-.11-.32-.17-.49-.19l-5.23-.41L10 .54a.928.928 0 0 0-.33-.4.966.966 0 0 0-1 0c-.15.1-.27.23-.34.4L6.07 5.55l-5.23.41c-.18.02-.34.08-.48.19a.9.9 0 0 0-.31.41.924.924 0 0 0 .22.97l3.87 3.77Zm2.61-3.97c.17-.01.33-.07.46-.16.13-.1.24-.23.31-.38l1.65-3.65 1.65 3.65a.906.906 0 0 0 .76.54l3.64.29-3 2.7c-.26.24-.36.6-.26.93l1.14 4.03-3.42-2.29a.922.922 0 0 0-.51-.15c-.18 0-.36.05-.51.15l-3.58 2.39.96-4.17a.897.897 0 0 0-.25-.86L3 7.63l3.75-.3Z"/></svg>