<svg xmlns="http://www.w3.org/2000/svg" width="19" height="18" fill="none">
  <path fill="#F3CD03" d="M18.227 6.461a.9.9 0 0 0-.304-.42.923.923 0 0 0-.489-.188l-5.21-.407L9.97.532a.902.902 0 0 0-.336-.387.922.922 0 0 0-1.329.386L6.051 5.446l-5.21.407a.922.922 0 0 0-.481.182.887.887 0 0 0-.084 1.36l3.85 3.695-1.362 5.806a.887.887 0 0 0 .371.943.924.924 0 0 0 1.027.008l4.976-3.267 4.975 3.267a.926.926 0 0 0 1.045-.023.888.888 0 0 0 .341-.973l-1.67-5.758 4.144-3.673a.892.892 0 0 0 .254-.959Z"/>
</svg>
