<svg xmlns="http://www.w3.org/2000/svg" aria-hidden="true" style="position:absolute;width:0;height:0;overflow:hidden">
  <defs>
    <symbol id="icon-airbnb-logo" viewBox="0 0 102 32">
      <path fill="#ff385c" d="M29.171 22.679c-.16-.39-.309-.8-.469-1.15l-.738-1.67-.03-.03c-2.195-4.8-4.539-9.68-7.023-14.48l-.1-.2c-.249-.47-.499-.99-.758-1.47-.319-.57-.629-1.18-1.137-1.76A5.272 5.272 0 0 0 12.563.487a5.285 5.285 0 0 0-1.827 1.432c-.469.58-.818 1.19-1.137 1.76-.249.52-.499 1.03-.758 1.5l-.1.2c-2.444 4.8-4.829 9.68-7.023 14.48l-.06.06c-.219.52-.479 1.06-.728 1.64-.16.35-.319.73-.479 1.15a6.808 6.808 0 0 0 3.736 8.776 6.776 6.776 0 0 0 3.448.455 8.341 8.341 0 0 0 3.172-1.1c1.297-.73 2.544-1.79 3.941-3.32 1.397 1.53 2.674 2.59 3.941 3.33A8.337 8.337 0 0 0 22.7 32c1.635.007 3.218-.58 4.456-1.651s2.047-2.556 2.278-4.179a5.957 5.957 0 0 0-.259-3.5v.01zm-14.326 1.66c-1.716-2.2-2.833-4.22-3.212-5.95a5.216 5.216 0 0 1-.1-1.96c.07-.51.259-.96.519-1.34.599-.87 1.646-1.41 2.793-1.41a3.3 3.3 0 0 1 2.794 1.4c.259.4.449.84.509 1.35.1.58.06 1.25-.1 1.96-.379 1.7-1.497 3.74-3.202 5.95zm12.71 1.48a4.76 4.76 0 0 1-2.893 3.75c-.758.32-1.596.41-2.414.32a6.236 6.236 0 0 1-2.414-.84 15.638 15.638 0 0 1-3.622-3.1c2.095-2.6 3.362-4.97 3.841-7.08.229-1 .259-1.9.16-2.73a5.54 5.54 0 0 0-.858-2.2 5.342 5.342 0 0 0-4.479-2.28c-1.846 0-3.492.86-4.489 2.27a5.194 5.194 0 0 0-.848 2.21c-.13.84-.1 1.77.16 2.73.479 2.11 1.776 4.51 3.841 7.1a14.304 14.304 0 0 1-3.621 3.12c-.828.48-1.616.73-2.414.83-1.241.159-2.495-.179-3.489-.941s-1.647-1.887-1.819-3.129c-.1-.8-.03-1.6.289-2.5.1-.32.249-.64.409-1.02.219-.52.479-1.06.728-1.6l.04-.07a326.77 326.77 0 0 1 6.954-14.41l.1-.2c.249-.48.499-.99.758-1.47.259-.51.539-1 .898-1.4a3.307 3.307 0 0 1 5.078 0c.349.4.638.89.898 1.4.249.48.499 1 .758 1.47l.1.2c2.434 4.77 4.789 9.64 6.984 14.41l.03.03c.259.52.479 1.1.728 1.6.16.39.319.7.419 1.03.19.9.289 1.7.19 2.5zm13.887-1.7a5 5 0 0 1-3.941-1.83 6.56 6.56 0 0 1-1.596-4.48 6.974 6.974 0 0 1 1.656-4.58c.502-.589 1.126-1.061 1.829-1.383s1.468-.484 2.241-.477c.727-.02 1.448.146 2.093.482s1.196.831 1.598 1.438l.1-1.57h2.913v12.08h-2.923l-.1-1.76a4.507 4.507 0 0 1-3.871 2.08zm.758-2.88c.579 0 1.087-.16 1.566-.45a3.76 3.76 0 0 0 1.078-1.25c.249-.51.379-1.12.379-1.8a3.426 3.426 0 0 0-1.467-3.04 2.934 2.934 0 0 0-3.112 0c-.439.32-.798.74-1.077 1.25a4.009 4.009 0 0 0-.379 1.8 3.426 3.426 0 0 0 1.467 3.04c.469.29.978.45 1.546.45zm11.124-12.78c0 .35-.06.67-.22.93-.16.25-.379.48-.668.64s-.599.22-.918.22-.639-.06-.928-.22a1.83 1.83 0 0 1-.668-.64 1.838 1.838 0 0 1-.22-.93c0-.36.07-.68.22-.93.16-.3.389-.48.668-.64.289-.16.599-.23.928-.23a1.829 1.829 0 0 1 1.596.86c.145.292.217.614.21.94zm-3.392 15.3v-12.06h3.172v12.08h-3.182l.01-.02zm11.653-8.9v.04c-.15-.07-.349-.1-.499-.13-.2-.04-.359-.04-.549-.04-.888 0-1.556.26-1.995.8-.479.55-.698 1.32-.698 2.31v5.93h-3.182v-12.08h2.923l.1 1.83c.319-.64.698-1.12 1.237-1.48a3.09 3.09 0 0 1 1.806-.5c.23 0 .449.02.639.06.1.03.16.03.219.06v3.2zm1.277 8.9V6.739h3.173v6.5c.449-.58.957-1.03 1.596-1.38a4.995 4.995 0 0 1 6.066 1.31 6.557 6.557 0 0 1 1.596 4.49 6.969 6.969 0 0 1-1.656 4.58 5.269 5.269 0 0 1-4.07 1.86c-.727.02-1.448-.146-2.093-.482s-1.196-.831-1.598-1.438l-.1 1.57-2.913.03v-.02zm6.135-2.52c.569 0 1.078-.16 1.556-.45a3.76 3.76 0 0 0 1.078-1.25c.259-.51.379-1.12.379-1.8 0-.67-.12-1.28-.379-1.79a3.738 3.738 0 0 0-1.078-1.25 2.934 2.934 0 0 0-3.112 0c-.449.32-.799.74-1.088 1.25a4.009 4.009 0 0 0-.379 1.8 3.426 3.426 0 0 0 1.467 3.04c.468.29.977.45 1.556.45zm7.493 2.53v-12.08h2.923l.1 1.57a3.951 3.951 0 0 1 3.532-1.89c.804-.014 1.594.21 2.272.644s1.213 1.059 1.539 1.796c.349.76.539 1.7.539 2.75v7.24h-3.183v-6.82c0-.84-.189-1.5-.568-1.99-.38-.48-.898-.74-1.556-.74-.479 0-.898.1-1.267.32a2.5 2.5 0 0 0-.858.93 2.7 2.7 0 0 0-.319 1.35v6.92h-3.153zm12.49 0V6.729h3.182v6.5a4.664 4.664 0 0 1 3.722-1.89 5.003 5.003 0 0 1 3.941 1.83 6.578 6.578 0 0 1 1.586 4.48 6.957 6.957 0 0 1-1.656 4.58 5.269 5.269 0 0 1-4.07 1.86c-.727.02-1.448-.146-2.093-.482s-1.196-.831-1.598-1.438l-.09 1.57-2.923.03zm6.166-2.53c.579 0 1.087-.16 1.556-.45.449-.32.798-.74 1.087-1.25.25-.51.379-1.12.379-1.8a3.426 3.426 0 0 0-1.466-3.04 2.934 2.934 0 0 0-3.112 0c-.439.32-.798.74-1.077 1.25a3.652 3.652 0 0 0-.38 1.8 3.416 3.416 0 0 0 1.467 3.04c.469.29.948.45 1.546.45z" style="fill:var(--color1, #ff385c)"/>
    </symbol>
    <symbol id="icon-google-logo" viewBox="0 0 93 32">
      <path fill="#ea4335" d="M39.764 16.41c0 4.442-3.432 7.715-7.644 7.715s-7.644-3.273-7.644-7.715c0-4.473 3.432-7.715 7.644-7.715s7.644 3.242 7.644 7.715zm-3.346 0c0-2.776-1.989-4.675-4.298-4.675s-4.298 1.899-4.298 4.675c0 2.748 1.989 4.675 4.298 4.675s4.298-1.93 4.298-4.675z" style="fill:var(--color2, #ea4335)"/>
      <path fill="#fbbc05" d="M56.253 16.41c0 4.442-3.432 7.715-7.644 7.715s-7.644-3.273-7.644-7.715c0-4.47 3.432-7.715 7.644-7.715s7.644 3.242 7.644 7.715zm-3.346 0c0-2.776-1.989-4.675-4.298-4.675s-4.298 1.899-4.298 4.675c0 2.748 1.989 4.675 4.298 4.675s4.298-1.93 4.298-4.675z" style="fill:var(--color3, #fbbc05)"/>
      <path fill="#4285f4" d="M72.055 9.162v13.85c0 5.697-3.318 8.024-7.242 8.024-3.693 0-5.915-2.501-6.754-4.546l2.913-1.228c.519 1.256 1.79 2.737 3.837 2.737 2.511 0 4.067-1.569 4.067-4.522v-1.11h-.116c-.749.936-2.192 1.753-4.013 1.753-3.809 0-7.3-3.36-7.3-7.683 0-4.355 3.49-7.743 7.3-7.743 1.818 0 3.26.817 4.013 1.725h.116V9.163h3.178v-.004zm-2.94 7.276c0-2.717-1.79-4.703-4.068-4.703-2.308 0-4.242 1.986-4.242 4.703 0 2.689 1.934 4.647 4.242 4.647 2.278 0 4.068-1.958 4.068-4.647z" style="fill:var(--color4, #4285f4)"/>
      <path fill="#34a853" d="M77.294 1.043v22.609h-3.263V1.043h3.263z" style="fill:var(--color5, #34a853)"/>
      <path fill="#ea4335" d="m90.012 18.95 2.597 1.753c-.838 1.256-2.858 3.419-6.348 3.419-4.328 0-7.561-3.388-7.561-7.715 0-4.588 3.26-7.715 7.187-7.715 3.954 0 5.888 3.186 6.52 4.908l.347.876-10.186 4.271c.78 1.548 1.992 2.337 3.693 2.337 1.704 0 2.886-.849 3.751-2.136zm-7.994-2.776 6.809-2.863c-.374-.964-1.501-1.635-2.828-1.635-1.7 0-4.067 1.52-3.981 4.497z" style="fill:var(--color2, #ea4335)"/>
      <path fill="#4285f4" d="M12.123 14.403V11.13h10.893c.107.57.161 1.245.161 1.976 0 2.456-.663 5.492-2.8 7.656-2.078 2.191-4.734 3.36-8.252 3.36-6.52 0-12.003-5.377-12.003-11.979S5.605.164 12.125.164c3.607 0 6.177 1.433 8.107 3.301l-2.281 2.31c-1.384-1.315-3.26-2.337-5.83-2.337-4.761 0-8.485 3.885-8.485 8.706s3.724 8.706 8.485 8.706c3.088 0 4.847-1.256 5.974-2.397.914-.925 1.515-2.247 1.752-4.052l-7.726.003z" style="fill:var(--color4, #4285f4)"/>
    </symbol>
    <symbol id="icon-microsoft-logo" viewBox="0 0 155 32">
      <path fill="#737373" d="m54.68 18.431-.923 2.53h-.077a17.536 17.536 0 0 0-.898-2.481l-4.95-12.031h-4.847v19.175h3.206V13.791c0-.744 0-1.588-.026-2.629-.026-.521-.077-.918-.103-1.216h.077c.154.744.333 1.29.462 1.637l5.95 13.991h2.257l5.899-14.115c.128-.322.257-.967.385-1.513h.077a175.576 175.576 0 0 0-.154 3.448v12.155h3.411V6.399h-4.668L54.68 18.43zm12.977-6.623h3.334v13.743h-3.334V11.808zm1.693-5.805c-.564 0-1.026.198-1.411.546s-.59.794-.59 1.34c0 .521.205.967.59 1.315s.846.521 1.411.521 1.052-.198 1.411-.521c.385-.347.59-.794.59-1.315s-.205-.967-.59-1.34c-.333-.347-.821-.546-1.411-.546zm13.465 5.681a9.602 9.602 0 0 0-1.872-.198c-1.513 0-2.898.322-4.052.967s-2.077 1.538-2.667 2.654c-.616 1.141-.924 2.456-.924 3.969 0 1.315.308 2.481.897 3.547.59 1.042 1.411 1.885 2.513 2.456 1.052.571 2.283.868 3.668.868 1.591 0 2.95-.322 4.027-.918l.025-.025v-2.977l-.128.099a5.82 5.82 0 0 1-1.616.819c-.59.198-1.129.298-1.59.298-1.334 0-2.385-.372-3.129-1.191-.769-.794-1.154-1.885-1.154-3.25 0-1.414.385-2.53 1.18-3.349s1.847-1.24 3.129-1.24c1.077 0 2.18.347 3.18 1.042l.128.099v-3.15l-.025-.025c-.436-.174-.924-.372-1.591-.496zm11.002-.1c-.82 0-1.59.248-2.257.769-.564.447-.949 1.091-1.283 1.86h-.025v-2.406h-3.334V25.55h3.334v-7.02c0-1.191.257-2.183.821-2.902.564-.744 1.282-1.116 2.154-1.116.308 0 .615.074 1 .124.359.099.616.198.795.322l.129.099v-3.225l-.077-.025c-.231-.149-.692-.223-1.257-.223zm9.08-.074c-2.334 0-4.207.67-5.514 1.985-1.334 1.315-1.975 3.126-1.975 5.408 0 2.133.667 3.87 1.95 5.135 1.282 1.24 3.026 1.885 5.206 1.885 2.283 0 4.104-.67 5.412-2.009 1.334-1.34 1.975-3.126 1.975-5.333 0-2.183-.616-3.919-1.873-5.184-1.205-1.265-2.975-1.885-5.18-1.885zm2.667 10.567c-.615.769-1.59 1.141-2.796 1.141s-2.18-.372-2.872-1.191c-.692-.769-1.026-1.885-1.026-3.299 0-1.464.359-2.58 1.026-3.374.692-.794 1.641-1.191 2.847-1.191 1.18 0 2.103.372 2.77 1.141s1.025 1.885 1.025 3.349c-.051 1.488-.333 2.654-.975 3.423zm11.823-4.564c-1.051-.422-1.718-.744-2.025-1.017-.257-.248-.385-.595-.385-1.042 0-.372.153-.744.538-.992s.821-.372 1.462-.372c.564 0 1.154.099 1.719.248s1.077.372 1.487.67l.129.099v-3.026l-.077-.025a9.462 9.462 0 0 0-1.513-.422 10.647 10.647 0 0 0-1.641-.149c-1.59 0-2.898.372-3.924 1.191-1.026.769-1.513 1.811-1.513 3.026 0 .645.103 1.215.334 1.687s.564.918 1.025 1.29c.462.347 1.129.744 2.052 1.116.769.322 1.359.571 1.719.769s.59.422.769.595c.128.198.205.447.205.769 0 .918-.718 1.364-2.18 1.364-.564 0-1.154-.099-1.847-.322s-1.334-.546-1.873-.918l-.128-.099v3.15l.077.025c.487.223 1.077.372 1.795.546.719.124 1.359.223 1.924.223 1.719 0 3.129-.372 4.129-1.191 1.025-.794 1.564-1.811 1.564-3.126 0-.918-.257-1.736-.821-2.357a10.492 10.492 0 0 0-3.001-1.712zm12.619-6.003c-2.334 0-4.207.67-5.514 1.985s-1.975 3.126-1.975 5.408c0 2.133.667 3.87 1.95 5.135 1.282 1.24 3.026 1.885 5.206 1.885 2.283 0 4.104-.67 5.412-2.009 1.334-1.34 1.975-3.126 1.975-5.333 0-2.183-.616-3.919-1.873-5.184-1.205-1.265-2.975-1.885-5.18-1.885zm2.641 10.567c-.615.769-1.59 1.141-2.796 1.141-1.231 0-2.18-.372-2.872-1.191-.693-.769-1.026-1.885-1.026-3.299 0-1.464.359-2.58 1.026-3.374.692-.794 1.641-1.191 2.847-1.191 1.154 0 2.103.372 2.77 1.141s1.025 1.885 1.025 3.349c0 1.488-.333 2.654-.975 3.423zm22.237-7.615v-2.654h-3.36V7.74l-.103.025-3.257.943v3.101h-5.027v-1.736c0-.794.206-1.414.564-1.811s.898-.595 1.564-.595c.462 0 .949.099 1.488.322l.128.074V5.26l-.077-.025c-.461-.149-1.077-.248-1.872-.248-1 0-1.872.223-2.668.595a4.372 4.372 0 0 0-1.82 1.761c-.436.744-.667 1.588-.667 2.555v1.91h-2.334v2.629h2.334V25.55h3.359V14.462h5.027v7.07c0 2.902 1.411 4.366 4.232 4.366.462 0 .949-.074 1.411-.149.487-.099.846-.223 1.052-.322l.025-.025v-2.654l-.129.099a2.221 2.221 0 0 1-.692.298 2.432 2.432 0 0 1-.667.099c-.666 0-1.128-.149-1.462-.521-.308-.347-.461-.918-.461-1.761v-6.499h3.411z" style="fill:var(--color6, #737373)"/>
      <path fill="#f25022" d="M0 0h15.722v15.206H0V0z" style="fill:var(--color7, #f25022)"/>
      <path fill="#7fba00" d="M17.363 0h15.722v15.206H17.363V0z" style="fill:var(--color8, #7fba00)"/>
      <path fill="#00a4ef" d="M0 16.794h15.722V32H0V16.794z" style="fill:var(--color9, #00a4ef)"/>
      <path fill="#ffb900" d="M17.363 16.794h15.722V32H17.363V16.794z" style="fill:var(--color10, #ffb900)"/>
    </symbol>
    <symbol id="icon-fedex-logo" viewBox="0 0 107 32">
      <path fill="#f60" d="m79.321 31.042 8.896-9.852-8.896-9.854h9.386l4.406 4.786 4.242-4.786h9.058l-8.853 9.813 8.975 9.893H97.11l-4.366-4.826-4.325 4.826H79.32z" style="fill:var(--color11, #f60)"/>
      <path fill="#f60" d="M79.321 6.919H69.246v4.417h10.075v6.657H69.246v6.111h10.075v6.938h-17.48V0h17.48v6.919z" style="fill:var(--color11, #f60)"/>
      <path fill="#652c8f" d="M54.468 0v12.704h-.081c-1.633-1.85-3.672-2.492-6.039-2.492-4.848 0-8.499 3.248-9.781 7.543-1.462-4.732-5.232-7.632-10.822-7.632-4.54 0-8.125 2.009-9.996 5.282v-4.068H8.365V6.92h10.241V0H.001v31.043h8.365V17.994h8.338a12.185 12.185 0 0 0-.381 3.068c0 6.475 5.018 11.019 11.423 11.019 5.386 0 8.935-2.492 10.812-7.036H31.39c-.97 1.365-1.705 1.77-3.644 1.77-2.248 0-4.186-1.933-4.186-4.225h14.597c.633 5.143 4.698 9.579 10.275 9.579a7.175 7.175 0 0 0 5.956-3.136h.081v2.01h7.374V.001h-7.374zM23.791 18.086c.465-1.972 2.016-3.26 3.953-3.26 2.132 0 3.604 1.249 3.992 3.26h-7.945zm26.202 8.23c-2.718 0-4.407-2.496-4.407-5.103 0-2.786 1.469-5.466 4.407-5.466 3.046 0 4.26 2.679 4.26 5.466 0 2.642-1.286 5.103-4.26 5.103z" style="fill:var(--color12, #652c8f)"/>
    </symbol>
    <symbol id="icon-fi-rr-angle-small-left" viewBox="0 0 32 32">
      <path fill="#fd9222" d="M16.945 17.868a1.332 1.332 0 0 1-1.89 0l-6.109-6.121a1.334 1.334 0 1 0-1.892 1.879l.001.001 6.119 6.121c.724.723 1.723 1.169 2.826 1.169s2.103-.447 2.826-1.169l6.121-6.121a1.334 1.334 0 1 0-1.894-1.88l-6.106 6.119z" style="fill:var(--color13, #fd9222)"/>
    </symbol>
    <symbol id="icon-burger" viewBox="0 0 29 32">
      <path stroke-linecap="round" stroke-linejoin="round" stroke-width="3.097" d="M3.613 16H25.29M3.613 8H25.29M3.613 24H25.29"/>
    </symbol>
    <symbol id="icon-instagram" viewBox="0 0 32 32">
      <path d="M28.717 10.756a9.258 9.258 0 0 0-.617-3.209l.021.063a6.585 6.585 0 0 0-3.698-3.722l-.044-.015a9.211 9.211 0 0 0-3.097-.596h-.01c-1.368-.06-1.801-.077-5.273-.077s-3.916 0-5.275.077a9.378 9.378 0 0 0-3.171.618l.064-.022A6.58 6.58 0 0 0 3.89 7.566l-.015.044a9.114 9.114 0 0 0-.595 3.092v.009c-.061 1.367-.08 1.8-.08 5.265 0 3.467 0 3.908.08 5.265a9.336 9.336 0 0 0 .616 3.168l-.022-.064a6.585 6.585 0 0 0 3.701 3.719l.044.015c.917.37 1.98.602 3.091.64h.016c1.368.06 1.801.079 5.273.079s3.916 0 5.275-.08a9.377 9.377 0 0 0 3.171-.616l-.064.022a6.591 6.591 0 0 0 3.728-3.692l.016-.044a9.15 9.15 0 0 0 .595-3.095v-.009c.061-1.365.08-1.799.08-5.267-.003-3.465-.003-3.904-.083-5.263zM15.989 22.531h-.005a6.565 6.565 0 0 1-6.565-6.56 6.565 6.565 0 0 1 6.565-6.561H15.997a6.567 6.567 0 0 1 6.567 6.56 6.567 6.567 0 0 1-6.567 6.561h-.007zm6.835-11.835a1.53 1.53 0 1 1 0-3.06 1.53 1.53 0 1 1 0 3.06z"/>
      <path d="M15.992 19.976a4.004 4.004 0 0 0 0-8.008 4.004 4.004 0 0 0 0 8.008z"/>
    </symbol>
    <symbol id="icon-twitter" viewBox="0 0 32 32">
      <path d="M30.667 7.899c-.917.411-1.98.714-3.094.857l-.057.006a5.462 5.462 0 0 0 2.394-2.983l.011-.038a10.706 10.706 0 0 1-3.397 1.312l-.07.012a5.465 5.465 0 0 0-9.457 3.732v.006c0 .432.037.849.128 1.245-4.545-.221-8.567-2.4-11.268-5.717a5.445 5.445 0 0 0-.751 2.762v.001c0 1.893.976 3.572 2.428 4.543a5.375 5.375 0 0 1-2.495-.687l.027.014v.061a5.494 5.494 0 0 0 4.344 5.364l.036.006c-.417.114-.896.18-1.39.18h-.045.002c-.351 0-.703-.02-1.035-.093.708 2.165 2.717 3.757 5.108 3.809a10.915 10.915 0 0 1-6.765 2.331h-.014.001-.072c-.436 0-.865-.027-1.286-.08l.05.005A15.246 15.246 0 0 0 12.337 27h.053-.003c10.06 0 15.56-8.333 15.56-15.557 0-.24-.008-.475-.02-.707a10.991 10.991 0 0 0 2.715-2.797l.025-.039z"/>
    </symbol>
    <symbol id="icon-facebook" viewBox="0 0 32 32">
      <path d="M19.52 4.64h.96v3.6h-1.2c-.48 0-.96 0-1.2.24s-.24.48-.24 1.04v1.28h2.64v3.04h-2.64v13.2h-4.08V13.76H11.6v-3.04h2.16V9.68c0-1.76.24-3.04.72-3.6.72-1.04 2.16-1.52 4.32-1.52.24.08.48.08.72.08z"/>
    </symbol>
    <symbol id="icon-1" viewBox="0 0 42 32">
      <path fill="#fff" d="m26.046 13.301-2.861-1.321V9.388c0-1.223-1.003-2.225-2.225-2.225s-2.225 1.003-2.225 2.225v13.377c0 5.111-4.255 9.22-9.367 9.22a9.352 9.352 0 0 1-9.367-9.367v-5.796h7.141v5.723c0 1.247 1.003 2.225 2.225 2.225s2.25-.978 2.25-2.225V8.996c0-4.989 4.28-9 9.342-9 5.087 0 9.342 4.035 9.342 9.073v2.959L26.046 13.3zm8.706 9.513v-5.992h7.166v5.796a9.367 9.367 0 0 1-9.367 9.367c-5.16 0-9.367-4.133-9.367-9.269v-5.845l2.861 1.321L30.3 16.92v5.894c0 1.223 1.003 2.225 2.225 2.225s2.225-1.003 2.225-2.225z" style="fill:var(--color14, #fff)"/>
    </symbol>
    <symbol id="icon-arrow" viewBox="0 0 21 32">
      <path fill="#fff" d="m1.95.32 18.28 18.3c.34.32.44.82.26 1.22-.18.44-.6.72-1.06.72h-6.82l3.58 8.5c.26.6-.02 1.26-.6 1.5l-3.16 1.34a1.14 1.14 0 0 1-1.497-.593l-.003-.007-3.42-8.08-5.56 5.58c-.22.2-.5.34-.8.34-.14 0-.32-.04-.44-.1A1.136 1.136 0 0 1 .01 28V1.14C.01.66.29.26.71.08c.12-.06.3-.08.44-.08.3 0 .58.1.8.32z" style="fill:var(--color14, #fff)"/>
    </symbol>
    <symbol id="icon-heart" viewBox="0 0 37 32">
      <path fill="#fff" d="M19.577 31.619a1.269 1.269 0 0 1-.91.373h-.028a1.28 1.28 0 0 1-.905-.374L4.737 19.064C4.574 18.924 0 14.747 0 9.73 0 3.64 3.71 0 9.94 0c3.663 0 7.07 2.87 8.727 4.48C20.3 2.87 23.707 0 27.37 0c6.23 0 9.964 3.64 9.964 9.73 0 5.017-4.597 9.194-4.783 9.38L19.577 31.617z" style="fill:var(--color14, #fff)"/>
    </symbol>
    <symbol id="icon-hourglass" viewBox="0 0 27 32">
      <path fill="#fff" d="M26.841 2.28h-1.7c0 6.6-3.16 11.38-6.66 13.72 3.5 2.32 6.66 7.1 6.66 13.7h1.7c.32 0 .58.26.58.58v1.14c0 .32-.26.58-.58.58H.561c-.32 0-.56-.26-.56-.58v-1.14c0-.32.24-.58.56-.58h1.72c0-6.6 3.16-11.38 6.66-13.7-3.5-2.34-6.66-7.12-6.66-13.72H.561c-.32 0-.56-.26-.56-.58V.56c0-.32.24-.56.56-.56h26.28c.32 0 .58.24.58.56V1.7c0 .32-.26.58-.58.58zm-5.519 6.86c.94-1.96 1.52-4.26 1.52-6.86H4.562c0 2.6.6 4.9 1.52 6.86h15.24zM5.582 24h16.24c-1.32-3.46-3.68-5.9-6.06-6.86h-4.1c-2.38.96-4.76 3.4-6.08 6.86z" style="fill:var(--color14, #fff)"/>
    </symbol>
    <symbol id="icon-minus_circle" viewBox="0 0 32 32">
      <path d="M0 16C0 7.16 7.16 0 16 0c8.827 0 16 7.16 16 16 0 8.827-7.173 16-16 16-8.84 0-16-7.173-16-16zm8 1.6h16v-3.2H8v3.2z"/>
    </symbol>
    <symbol id="icon-mobile-screen" viewBox="0 0 21 32">
      <path d="M16.926 2.286H3.635c-1.383 0-2.491 1.143-2.491 2.571v22.286c0 1.417 1.109 2.571 2.491 2.571h13.291c1.383 0 2.503-1.154 2.503-2.571V4.857c0-1.429-1.12-2.571-2.503-2.571zm-4.149 23.943c0 .526-.377.914-.834.914H8.572c-.411 0-.789-.389-.789-.857 0-.48.377-.857.834-.857h3.326c.457 0 .834.377.834.8zm3.326-3.372H4.457V5.714h11.646v17.143z"/>
    </symbol>
    <symbol id="icon-plus_circle" viewBox="0 0 32 32">
      <path d="M0 16C0 7.16 7.16 0 16 0c8.827 0 16 7.16 16 16 0 8.827-7.173 16-16 16-8.84 0-16-7.173-16-16zm17.6 1.6H24v-3.2h-6.4V8h-3.213v6.4H8v3.2h6.387V24H17.6v-6.4z"/>
    </symbol>
    <symbol id="icon-stars" viewBox="0 0 32 32">
      <path fill="#f3cd03" d="m7.223 19.718-2.39 10.329a1.59 1.59 0 0 0 .07.942c.105.297.314.558.576.733.262.192.576.279.907.279.314 0 .628-.087.89-.262l8.723-5.81 8.706 5.81c.279.174.593.262.925.262s.646-.122.907-.314c.262-.192.471-.454.576-.768s.105-.646.017-.96l-2.914-10.241 7.258-6.525c.219-.209.383-.475.468-.773l.003-.012a1.501 1.501 0 0 0-.038-.935l.003.011a1.645 1.645 0 0 0-.52-.748l-.003-.002a1.793 1.793 0 0 0-.855-.332l-9.125-.715-3.96-8.741a1.628 1.628 0 0 0-.57-.694l-.005-.004c-.249-.153-.55-.243-.872-.243s-.624.09-.88.248l.007-.004a1.536 1.536 0 0 0-.593.698l-3.943 8.741-9.125.715c-.314.035-.593.14-.837.332-.243.18-.429.423-.537.705l-.004.011a1.607 1.607 0 0 0 .384 1.693l6.752 6.577zm4.554-6.926a1.58 1.58 0 0 0 .803-.279c.227-.174.419-.401.541-.663L16 5.482l2.879 6.368c.234.525.732.895 1.32.942h.006l6.351.506-5.234 4.711a1.584 1.584 0 0 0-.454 1.623l1.989 7.031-5.967-3.995a1.594 1.594 0 0 0-.88-.262h-.011H16c-.314 0-.628.087-.89.262l-6.246 4.17 1.675-7.275a1.561 1.561 0 0 0-.435-1.5h-.001l-4.868-4.746 6.543-.523z" style="fill:var(--color15, #f3cd03)"/>
    </symbol>
    <symbol id="icon-stars-fill" viewBox="0 0 34 32">
      <path fill="#f3cd03" d="M32.404 11.486a1.612 1.612 0 0 0-.537-.744l-.004-.003a1.628 1.628 0 0 0-.863-.334h-.006l-9.262-.724L17.725.945a1.615 1.615 0 0 0-.591-.684l-.006-.004a1.64 1.64 0 0 0-2.358.676l-.004.01-4.007 8.738-9.262.724a1.627 1.627 0 0 0-.859.327l.004-.003a1.577 1.577 0 0 0-.15 2.417l.001.001 6.844 6.569-2.421 10.322a1.572 1.572 0 0 0 .654 1.672l.006.004c.259.178.579.284.924.284.336 0 .648-.101.908-.274l-.006.004 8.846-5.808 8.844 5.808c.254.167.565.267.899.267.36 0 .693-.115.964-.311l-.005.003a1.577 1.577 0 0 0 .604-1.741l.003.011-2.969-10.236 7.367-6.53a1.585 1.585 0 0 0 .449-1.716l.003.011z" style="fill:var(--color15, #f3cd03)"/>
    </symbol>
    <symbol id="icon-tick" viewBox="0 0 43 32">
      <path fill="#fff" d="M41.915.727c-.38-.394-.913-.638-1.503-.638S39.29.334 38.91.727l-.001.001-25.505 26.037-9.787-10.027c-.38-.394-.913-.638-1.503-.638s-1.122.245-1.502.638l-.001.001c-.383.4-.618.944-.618 1.543s.235 1.142.619 1.543l-.001-.001 11.303 11.543a2.088 2.088 0 0 0 3.005 0l26.995-27.58a2.2 2.2 0 0 0 0-3.058z" style="fill:var(--color14, #fff)"/>
    </symbol>
    <symbol id="icon-triangle" viewBox="0 0 28 32">
      <path d="M27.391 14.29c1.307.767 1.307 2.649 0 3.398L2.924 31.734a1.952 1.952 0 0 1-2.928-1.69V1.952c0-1.499 1.621-2.44 2.928-1.69l24.467 14.029z"/>
    </symbol>
    <symbol id="icon-activity" viewBox="0 0 30 32">
      <path fill="#f03e3d" d="M19.423 2.644H8.064c-4.441 0-7.428 3.42-7.428 8.507v11.74c0 5.073 2.986 8.492 7.428 8.492h11.359c4.441 0 7.415-3.42 7.415-8.492v-11.74c0-5.087-2.974-8.507-7.415-8.507z" style="fill:var(--color16, #f03e3d)"/>
      <path d="m20.592 14.47-3.745 5.299a.961.961 0 0 1-.649.416l-.005.001a.91.91 0 0 1-.729-.227l.001.001-3.594-3.091-3.238 4.593c-.234.408-.691.592-1.111.446s-.697-.583-.675-1.065v-.013c0-.241.078-.465.21-.646l-.002.003 3.871-5.476a.957.957 0 0 1 .641-.416l.006-.001a.908.908 0 0 1 .725.215l3.594 3.103 3.157-4.454c.152-.23.382-.382.638-.423s.517.034.721.208c.423.363.505 1.029.185 1.502v.025z" style="fill:var(--color17, #000)"/>
    </symbol>
    <symbol id="icon-chart" viewBox="0 0 30 32">
      <path fill="#00acdd" d="M19.956.929h-12.1C3.447.929.948 3.595.948 8.299v12.898c0 4.704 2.498 7.37 6.908 7.37h12.1c4.409 0 6.896-2.666 6.896-7.37V8.299c0-4.705-2.487-7.37-6.896-7.37z" style="fill:var(--color18, #00acdd)"/>
      <path d="M13.946 6.58c-.587 0-1.071.516-1.071 1.155v14.028c0 .626.484 1.142 1.071 1.142.599 0 1.082-.516 1.082-1.142V7.735c0-.639-.483-1.155-1.082-1.155zm-6.044 4.532c-.587 0-1.071.516-1.071 1.155v9.495c0 .626.484 1.142 1.071 1.142.599 0 1.082-.516 1.082-1.142v-9.495c0-.639-.484-1.155-1.082-1.155zm10.925 6.167c0-.639.484-1.155 1.082-1.155.587 0 1.071.516 1.071 1.155v4.483c0 .626-.484 1.142-1.082 1.142-.587 0-1.071-.516-1.071-1.142v-4.483z" style="fill:var(--color17, #000)"/>
    </symbol>
  </defs>
</svg>
